<svg width="800" height="500" viewBox="0 0 800 500" fill="none" xmlns="http://www.w3.org/2000/svg">
<g clip-path="url(#clip0_2_58)">
<rect width="800" height="500" fill="white"/>
<rect width="800" height="500" fill="#EBD45E"/>
<ellipse cx="420.5" cy="235.5" rx="182.5" ry="177.5" fill="#F3A734"/>
<path d="M605.5 172.071V172.071C609.025 168.021 615.001 167.198 619.49 170.145L622.423 172.071V172.071C625.193 168.434 630.612 168.281 633.583 171.757L635.5 174" stroke="#643E1B"/>
<path d="M575 195.071V195.071C578.525 191.021 584.501 190.198 588.99 193.145L591.923 195.071V195.071C594.693 191.434 600.112 191.281 603.083 194.757L605 197" stroke="#643E1B"/>
<path d="M613 204.071V204.071C616.525 200.021 622.501 199.198 626.99 202.145L629.923 204.071V204.071C632.693 200.434 638.112 200.281 641.083 203.757L643 206" stroke="#643E1B"/>
<path d="M635 188.071V188.071C638.525 184.021 644.501 183.198 648.99 186.145L651.923 188.071V188.071C654.693 184.434 660.112 184.281 663.083 187.757L665 190" stroke="#643E1B"/>
<ellipse cx="178.061" cy="149.765" rx="46.0612" ry="28.0588" fill="#F2F2F2"/>
<ellipse cx="178.061" cy="149.765" rx="46.0612" ry="28.0588" fill="#F2F2F2"/>
<ellipse cx="251.51" cy="137.059" rx="63.4898" ry="28.0588" fill="#F2F2F2"/>
<ellipse cx="251.51" cy="137.059" rx="63.4898" ry="28.0588" fill="#F2F2F2"/>
<ellipse cx="224.122" cy="170.941" rx="46.0612" ry="28.0588" fill="#F2F2F2"/>
<ellipse cx="224.122" cy="170.941" rx="46.0612" ry="28.0588" fill="#F2F2F2"/>
<ellipse cx="625.092" cy="78.2157" rx="50.3401" ry="26.5" transform="rotate(-179.342 625.092 78.2157)" fill="#F2F2F2"/>
<ellipse cx="625.092" cy="78.2157" rx="50.3401" ry="26.5" transform="rotate(-179.342 625.092 78.2157)" fill="#F2F2F2"/>
<ellipse cx="544.688" cy="89.293" rx="69.3878" ry="26.5" transform="rotate(-179.342 544.688 89.293)" fill="#F2F2F2"/>
<ellipse cx="544.688" cy="89.293" rx="69.3878" ry="26.5" transform="rotate(-179.342 544.688 89.293)" fill="#F2F2F2"/>
<ellipse cx="574.985" cy="57.6389" rx="50.3401" ry="26.5" transform="rotate(-179.342 574.985 57.6389)" fill="#F2F2F2"/>
<ellipse cx="574.985" cy="57.6389" rx="50.3401" ry="26.5" transform="rotate(-179.342 574.985 57.6389)" fill="#F2F2F2"/>
<path d="M695.202 257L967 499.5H430.954L695.202 257Z" fill="#A78F51"/>
<path d="M49.682 245.5L307.638 499.5H-129L49.682 245.5Z" fill="#FDF28C"/>
<path d="M252.73 209.5L707.785 499.5H88.69L252.73 209.5Z" fill="#C28152"/>
<path d="M252.73 209.5L707.785 499.5H88.69L252.73 209.5Z" fill="#C28152"/>
<path d="M550.495 181L707.785 499.5H140.281L550.495 181Z" fill="#846148"/>
<path d="M550.495 181L707.785 499.5H140.281L550.495 181Z" fill="#846148"/>
<ellipse cx="838.013" cy="164.318" rx="43.6296" ry="18.71" transform="rotate(-179.342 838.013 164.318)" fill="#F2F2F2"/>
<ellipse cx="838.013" cy="164.318" rx="43.6296" ry="18.71" transform="rotate(-179.342 838.013 164.318)" fill="#F2F2F2"/>
<ellipse cx="768.349" cy="171.991" rx="60.1381" ry="18.71" transform="rotate(-179.342 768.349 171.991)" fill="#F2F2F2"/>
<ellipse cx="768.349" cy="171.991" rx="60.1381" ry="18.71" transform="rotate(-179.342 768.349 171.991)" fill="#F2F2F2"/>
<ellipse cx="794.549" cy="149.697" rx="43.6296" ry="18.71" transform="rotate(-179.342 794.549 149.697)" fill="#F2F2F2"/>
<ellipse cx="794.549" cy="149.697" rx="43.6296" ry="18.71" transform="rotate(-179.342 794.549 149.697)" fill="#F2F2F2"/>
<ellipse cx="22.3338" cy="58.1026" rx="48.7745" ry="20.193" transform="rotate(-179.339 22.3338 58.1026)" fill="#F2F2F2"/>
<ellipse cx="22.3338" cy="58.1026" rx="48.7745" ry="20.193" transform="rotate(-179.339 22.3338 58.1026)" fill="#F2F2F2"/>
<ellipse cx="-55.542" cy="66.3491" rx="67.2297" ry="20.193" transform="rotate(-179.339 -55.542 66.3491)" fill="#F2F2F2"/>
<ellipse cx="-55.542" cy="66.3491" rx="67.2297" ry="20.193" transform="rotate(-179.339 -55.542 66.3491)" fill="#F2F2F2"/>
<ellipse cx="-26.2617" cy="42.3012" rx="48.7745" ry="20.193" transform="rotate(-179.339 -26.2617 42.3012)" fill="#F2F2F2"/>
<ellipse cx="-26.2617" cy="42.3012" rx="48.7745" ry="20.193" transform="rotate(-179.339 -26.2617 42.3012)" fill="#F2F2F2"/>
</g>
<defs>
<clipPath id="clip0_2_58">
<rect width="800" height="500" fill="white"/>
</clipPath>
</defs>
</svg>
