<svg width="800" height="500" viewBox="0 0 800 500" fill="none" xmlns="http://www.w3.org/2000/svg">
<g clip-path="url(#clip0_2_58)">
<rect width="800" height="500" fill="white"/>
<rect width="800" height="500" fill="#B48203" fill-opacity="0.26"/>
<ellipse cx="400" cy="240.5" rx="200" ry="182.5" fill="#F3BE34" fill-opacity="0.9"/>
<ellipse cx="132.061" cy="140.765" rx="46.0612" ry="28.0588" fill="#F2F2F2"/>
<ellipse cx="132.061" cy="140.765" rx="46.0612" ry="28.0588" fill="#F2F2F2"/>
<ellipse cx="205.51" cy="128.059" rx="63.4898" ry="28.0588" fill="#F2F2F2"/>
<ellipse cx="205.51" cy="128.059" rx="63.4898" ry="28.0588" fill="#F2F2F2"/>
<ellipse cx="178.122" cy="161.941" rx="46.0612" ry="28.0588" fill="#F2F2F2"/>
<ellipse cx="178.122" cy="161.941" rx="46.0612" ry="28.0588" fill="#F2F2F2"/>
<ellipse cx="625.092" cy="78.2157" rx="50.3401" ry="26.5" transform="rotate(-179.342 625.092 78.2157)" fill="#F2F2F2"/>
<ellipse cx="625.092" cy="78.2157" rx="50.3401" ry="26.5" transform="rotate(-179.342 625.092 78.2157)" fill="#F2F2F2"/>
<ellipse cx="544.688" cy="89.293" rx="69.3878" ry="26.5" transform="rotate(-179.342 544.688 89.293)" fill="#F2F2F2"/>
<ellipse cx="544.688" cy="89.293" rx="69.3878" ry="26.5" transform="rotate(-179.342 544.688 89.293)" fill="#F2F2F2"/>
<ellipse cx="574.985" cy="57.6389" rx="50.3401" ry="26.5" transform="rotate(-179.342 574.985 57.6389)" fill="#F2F2F2"/>
<ellipse cx="574.985" cy="57.6389" rx="50.3401" ry="26.5" transform="rotate(-179.342 574.985 57.6389)" fill="#F2F2F2"/>
<path d="M695.202 257L967 499.5H430.954L695.202 257Z" fill="#A78F51"/>
<path d="M49.682 245.5L307.638 499.5H-129L49.682 245.5Z" fill="#FDF28C"/>
<path d="M252.73 209.5L707.785 499.5H88.69L252.73 209.5Z" fill="#C28152"/>
<path d="M252.73 209.5L707.785 499.5H88.69L252.73 209.5Z" fill="#C28152"/>
<path d="M550.495 181L707.785 499.5H140.281L550.495 181Z" fill="#846148"/>
<path d="M550.495 181L707.785 499.5H140.281L550.495 181Z" fill="#846148"/>
<ellipse cx="838.013" cy="164.318" rx="43.6296" ry="18.71" transform="rotate(-179.342 838.013 164.318)" fill="#F2F2F2"/>
<ellipse cx="838.013" cy="164.318" rx="43.6296" ry="18.71" transform="rotate(-179.342 838.013 164.318)" fill="#F2F2F2"/>
<ellipse cx="768.349" cy="171.991" rx="60.1381" ry="18.71" transform="rotate(-179.342 768.349 171.991)" fill="#F2F2F2"/>
<ellipse cx="768.349" cy="171.991" rx="60.1381" ry="18.71" transform="rotate(-179.342 768.349 171.991)" fill="#F2F2F2"/>
<ellipse cx="794.549" cy="149.697" rx="43.6296" ry="18.71" transform="rotate(-179.342 794.549 149.697)" fill="#F2F2F2"/>
<ellipse cx="794.549" cy="149.697" rx="43.6296" ry="18.71" transform="rotate(-179.342 794.549 149.697)" fill="#F2F2F2"/>
<ellipse cx="22.3338" cy="58.1026" rx="48.7745" ry="20.193" transform="rotate(-179.339 22.3338 58.1026)" fill="#F2F2F2"/>
<ellipse cx="22.3338" cy="58.1026" rx="48.7745" ry="20.193" transform="rotate(-179.339 22.3338 58.1026)" fill="#F2F2F2"/>
<ellipse cx="-55.542" cy="66.3491" rx="67.2297" ry="20.193" transform="rotate(-179.339 -55.542 66.3491)" fill="#F2F2F2"/>
<ellipse cx="-55.542" cy="66.3491" rx="67.2297" ry="20.193" transform="rotate(-179.339 -55.542 66.3491)" fill="#F2F2F2"/>
<ellipse cx="-26.2617" cy="42.3012" rx="48.7745" ry="20.193" transform="rotate(-179.339 -26.2617 42.3012)" fill="#F2F2F2"/>
<ellipse cx="-26.2617" cy="42.3012" rx="48.7745" ry="20.193" transform="rotate(-179.339 -26.2617 42.3012)" fill="#F2F2F2"/>
</g>
<defs>
<clipPath id="clip0_2_58">
<rect width="800" height="500" fill="white"/>
</clipPath>
</defs>
</svg>
