<svg width="800" height="500" viewBox="0 0 800 500" fill="none" xmlns="http://www.w3.org/2000/svg">
<g clip-path="url(#clip0_2_58)">
<rect width="800" height="500" fill="white"/>
<rect width="800" height="500" fill="#EAC544" fill-opacity="0.67"/>
<circle cx="400" cy="260" r="200" fill="#E3B53F" fill-opacity="0.85"/>
<ellipse cx="168" cy="130.5" rx="55" ry="36.5" fill="#F2F2F2"/>
<ellipse cx="168" cy="130.5" rx="55" ry="36.5" fill="#F2F2F2"/>
<ellipse cx="259" cy="115.5" rx="72" ry="38.5" fill="#F2F2F2"/>
<ellipse cx="259" cy="115.5" rx="72" ry="38.5" fill="#F2F2F2"/>
<ellipse cx="223.122" cy="159.941" rx="46.0612" ry="28.0588" fill="#F2F2F2"/>
<ellipse cx="223.122" cy="159.941" rx="46.0612" ry="28.0588" fill="#F2F2F2"/>
<ellipse cx="604.092" cy="77.2157" rx="50.3401" ry="26.5" transform="rotate(-179.342 604.092 77.2157)" fill="#F2F2F2"/>
<ellipse cx="604.092" cy="77.2157" rx="50.3401" ry="26.5" transform="rotate(-179.342 604.092 77.2157)" fill="#F2F2F2"/>
<ellipse cx="523.688" cy="88.293" rx="69.3878" ry="26.5" transform="rotate(-179.342 523.688 88.293)" fill="#F2F2F2"/>
<ellipse cx="523.688" cy="88.293" rx="69.3878" ry="26.5" transform="rotate(-179.342 523.688 88.293)" fill="#F2F2F2"/>
<ellipse cx="566.344" cy="56.7808" rx="62.6997" ry="26.5" transform="rotate(-179.342 566.344 56.7808)" fill="#F2F2F2"/>
<ellipse cx="566.344" cy="56.7808" rx="62.6997" ry="26.5" transform="rotate(-179.342 566.344 56.7808)" fill="#F2F2F2"/>
<path d="M695.202 257L967 499.5H430.954L695.202 257Z" fill="#A78F51"/>
<path d="M81 305.5L307.638 499.5H-129L81 305.5Z" fill="#FDF28C"/>
<path d="M252.73 209.5L707.785 499.5H88.69L252.73 209.5Z" fill="#C28152"/>
<path d="M252.73 209.5L707.785 499.5H88.69L252.73 209.5Z" fill="#C28152"/>
<path d="M550.495 181L707.785 499.5H140.281L550.495 181Z" fill="#846148"/>
<path d="M550.495 181L707.785 499.5H140.281L550.495 181Z" fill="#846148"/>
<ellipse cx="780.349" cy="177.991" rx="60.1381" ry="18.71" transform="rotate(-179.342 780.349 177.991)" fill="#F2F2F2"/>
<ellipse cx="780.349" cy="177.991" rx="60.1381" ry="18.71" transform="rotate(-179.342 780.349 177.991)" fill="#F2F2F2"/>
<ellipse cx="806.549" cy="155.697" rx="43.6296" ry="18.71" transform="rotate(-179.342 806.549 155.697)" fill="#F2F2F2"/>
<ellipse cx="806.549" cy="155.697" rx="43.6296" ry="18.71" transform="rotate(-179.342 806.549 155.697)" fill="#F2F2F2"/>
<ellipse cx="17.3338" cy="73.1026" rx="48.7745" ry="20.193" transform="rotate(-179.339 17.3338 73.1026)" fill="#F2F2F2"/>
<ellipse cx="17.3338" cy="73.1026" rx="48.7745" ry="20.193" transform="rotate(-179.339 17.3338 73.1026)" fill="#F2F2F2"/>
<ellipse cx="-60.542" cy="81.3492" rx="67.2297" ry="20.193" transform="rotate(-179.339 -60.542 81.3492)" fill="#F2F2F2"/>
<ellipse cx="-60.542" cy="81.3492" rx="67.2297" ry="20.193" transform="rotate(-179.339 -60.542 81.3492)" fill="#F2F2F2"/>
<ellipse cx="-31.2617" cy="57.3012" rx="48.7745" ry="20.193" transform="rotate(-179.339 -31.2617 57.3012)" fill="#F2F2F2"/>
<ellipse cx="-31.2617" cy="57.3012" rx="48.7745" ry="20.193" transform="rotate(-179.339 -31.2617 57.3012)" fill="#F2F2F2"/>
</g>
<defs>
<clipPath id="clip0_2_58">
<rect width="800" height="500" fill="white"/>
</clipPath>
</defs>
</svg>
