<svg width="800" height="500" viewBox="0 0 800 500" fill="none" xmlns="http://www.w3.org/2000/svg">
<g clip-path="url(#clip0_4_72)">
<rect width="800" height="500" fill="white"/>
<g filter="url(#filter0_i_4_72)">
<rect width="800" height="500" fill="#EAC544" fill-opacity="0.67"/>
</g>
<circle cx="400" cy="260" r="200" fill="#E3B53F" fill-opacity="0.85"/>
<ellipse cx="154.44" cy="169.221" rx="48.4404" ry="23.3468" fill="#F1F1F1"/>
<ellipse cx="154.44" cy="169.221" rx="48.4404" ry="23.3468" fill="#EAEAEA"/>
<ellipse cx="234.587" cy="159.626" rx="63.4128" ry="24.6261" fill="#F1F1F1"/>
<ellipse cx="234.587" cy="159.626" rx="63.4128" ry="24.6261" fill="#EAEAEA"/>
<ellipse cx="215.88" cy="166.828" rx="40.4819" ry="16.3218" fill="#F1F1F1"/>
<ellipse cx="215.88" cy="166.828" rx="40.4819" ry="16.3218" fill="#E7E7E7"/>
<ellipse cx="202.989" cy="188.052" rx="40.5677" ry="17.9475" fill="#F1F1F1"/>
<ellipse cx="202.989" cy="188.052" rx="40.5677" ry="17.9475" fill="#EAEAEA"/>
<ellipse cx="483.835" cy="79.1486" rx="36.8349" ry="24.6622" fill="#F1F1F1"/>
<ellipse cx="483.835" cy="79.1486" rx="36.8349" ry="24.6622" fill="#EAEAEA"/>
<ellipse cx="544.78" cy="69.0135" rx="48.2202" ry="26.0135" fill="#F1F1F1"/>
<ellipse cx="544.78" cy="69.0135" rx="48.2202" ry="26.0135" fill="#EAEAEA"/>
<ellipse cx="530.554" cy="76.6207" rx="30.7831" ry="17.2414" fill="#F1F1F1"/>
<ellipse cx="530.554" cy="76.6207" rx="30.7831" ry="17.2414" fill="#E7E7E7"/>
<ellipse cx="520.752" cy="99.0413" rx="30.8483" ry="18.9587" fill="#F1F1F1"/>
<ellipse cx="520.752" cy="99.0413" rx="30.8483" ry="18.9587" fill="#EAEAEA"/>
<ellipse cx="285.008" cy="69.3139" rx="40.5936" ry="19.9064" transform="rotate(-179.342 285.008 69.3139)" fill="#F2F2F2"/>
<ellipse cx="285.008" cy="69.3139" rx="40.5936" ry="19.9064" transform="rotate(-179.342 285.008 69.3139)" fill="#F2F2F2"/>
<ellipse cx="220.178" cy="77.5841" rx="55.9534" ry="19.9064" transform="rotate(-179.342 220.178 77.5841)" fill="#F2F2F2"/>
<ellipse cx="220.178" cy="77.5841" rx="55.9534" ry="19.9064" transform="rotate(-179.342 220.178 77.5841)" fill="#F2F2F2"/>
<ellipse cx="254.556" cy="53.9394" rx="50.5602" ry="19.9064" transform="rotate(-179.342 254.556 53.9394)" fill="#F2F2F2"/>
<ellipse cx="254.556" cy="53.9394" rx="50.5602" ry="19.9064" transform="rotate(-179.342 254.556 53.9394)" fill="#F2F2F2"/>
<ellipse cx="668.958" cy="140.564" rx="33.2068" ry="14.4933" transform="rotate(-179.342 668.958 140.564)" fill="#F2F2F2"/>
<ellipse cx="668.958" cy="140.564" rx="33.2068" ry="14.4933" transform="rotate(-179.342 668.958 140.564)" fill="#ECECEC"/>
<ellipse cx="615.935" cy="146.518" rx="45.7715" ry="14.4933" transform="rotate(-179.342 615.935 146.518)" fill="#F2F2F2"/>
<ellipse cx="615.935" cy="146.518" rx="45.7715" ry="14.4933" transform="rotate(-179.342 615.935 146.518)" fill="#ECECEC"/>
<ellipse cx="644.032" cy="129.338" rx="41.3598" ry="14.4933" transform="rotate(-179.342 644.032 129.338)" fill="#F2F2F2"/>
<ellipse cx="644.032" cy="129.338" rx="41.3598" ry="14.4933" transform="rotate(-179.342 644.032 129.338)" fill="#ECECEC"/>
<path d="M670.887 257L967 500H383L670.887 257Z" fill="#A78F51"/>
<path d="M734.887 287L1031 530H447L734.887 287Z" fill="#AA9254"/>
<path d="M766.887 291L1063 534H479L766.887 291Z" fill="#AA9254"/>
<path d="M727.128 314L1002 528H431L727.128 314Z" fill="#9E884E"/>
<path d="M722.666 378L1021 603H456L722.666 378Z" fill="#96824D"/>
<path d="M153.33 279L444 497H-116L153.33 279Z" fill="#FDF28C"/>
<path d="M176.33 287L467 505H-93L176.33 287Z" fill="#FDF28C"/>
<path d="M32.348 366L308 534H-185L32.348 366Z" fill="#F1E67B"/>
<path d="M139.348 336L415 537H-78L139.348 336Z" fill="#EEE486"/>
<path d="M74.2376 416L360 577H-87L74.2376 416Z" fill="#E6DC84"/>
<path d="M252.73 209.5L707.785 499.5H88.69L252.73 209.5Z" fill="#C28152"/>
<path d="M252.73 209.5L707.785 499.5H88.69L252.73 209.5Z" fill="#C28152"/>
<path d="M235 288L653.095 553H34L235 288Z" fill="#B4794F"/>
<path d="M235 288L653.095 553H34L235 288Z" fill="#B4794F"/>
<path d="M289 251L707.095 516H88L289 251Z" fill="#B4794F"/>
<path d="M289 251L707.095 516H88L289 251Z" fill="#B4794F"/>
<path d="M229.787 347L716 601H66L229.787 347Z" fill="#A9744D"/>
<path d="M229.787 347L716 601H66L229.787 347Z" fill="#A9744D"/>
<path d="M269.787 355L756 609H106L269.787 355Z" fill="#A9744D"/>
<path d="M269.787 355L756 609H106L269.787 355Z" fill="#A9744D"/>
<path d="M550.495 181L707.785 499.5H140.281L550.495 181Z" fill="#846148"/>
<path d="M550.495 181L707.785 499.5H140.281L550.495 181Z" fill="#846148"/>
<path d="M497.88 271L669 546H131L497.88 271Z" fill="#815C41"/>
<path d="M497.88 271L669 546H131L497.88 271Z" fill="#815C41"/>
<path d="M472.88 279L644 554H106L472.88 279Z" fill="#815C41"/>
<path d="M472.88 279L644 554H106L472.88 279Z" fill="#815C41"/>
<path d="M521.88 288L693 563H155L521.88 288Z" fill="#815C41"/>
<path d="M521.88 288L693 563H155L521.88 288Z" fill="#815C41"/>
<path d="M553.88 299L725 574H187L553.88 299Z" fill="#815C41"/>
<path d="M553.88 299L725 574H187L553.88 299Z" fill="#815C41"/>
<path d="M477.458 354L747 630H140L477.458 354Z" fill="#7B5941"/>
<path d="M477.458 354L747 630H140L477.458 354Z" fill="#7B5941"/>
<path d="M405.458 378L675 654H68L405.458 378Z" fill="#7B5941"/>
<path d="M405.458 378L675 654H68L405.458 378Z" fill="#7B5941"/>
<path d="M464.5 452.5L746.504 708H179L464.5 452.5Z" fill="#76563F"/>
<path d="M464.5 452.5L746.504 708H179L464.5 452.5Z" fill="#76563F"/>
<ellipse cx="780.349" cy="177.991" rx="60.1381" ry="18.71" transform="rotate(-179.342 780.349 177.991)" fill="#F2F2F2"/>
<ellipse cx="780.349" cy="177.991" rx="60.1381" ry="18.71" transform="rotate(-179.342 780.349 177.991)" fill="#F2F2F2"/>
<ellipse cx="806.549" cy="155.697" rx="43.6296" ry="18.71" transform="rotate(-179.342 806.549 155.697)" fill="#F2F2F2"/>
<ellipse cx="806.549" cy="155.697" rx="43.6296" ry="18.71" transform="rotate(-179.342 806.549 155.697)" fill="#F2F2F2"/>
<ellipse cx="17.3338" cy="73.1026" rx="48.7745" ry="20.193" transform="rotate(-179.339 17.3338 73.1026)" fill="#F2F2F2"/>
<ellipse cx="17.3338" cy="73.1026" rx="48.7745" ry="20.193" transform="rotate(-179.339 17.3338 73.1026)" fill="#F2F2F2"/>
<ellipse cx="-60.542" cy="81.3492" rx="67.2297" ry="20.193" transform="rotate(-179.339 -60.542 81.3492)" fill="#F2F2F2"/>
<ellipse cx="-60.542" cy="81.3492" rx="67.2297" ry="20.193" transform="rotate(-179.339 -60.542 81.3492)" fill="#F2F2F2"/>
<ellipse cx="-31.2617" cy="57.3012" rx="48.7745" ry="20.193" transform="rotate(-179.339 -31.2617 57.3012)" fill="#F2F2F2"/>
<ellipse cx="-31.2617" cy="57.3012" rx="48.7745" ry="20.193" transform="rotate(-179.339 -31.2617 57.3012)" fill="#F2F2F2"/>
</g>
<defs>
<filter id="filter0_i_4_72" x="0" y="0" width="800" height="620" filterUnits="userSpaceOnUse" color-interpolation-filters="sRGB">
<feFlood flood-opacity="0" result="BackgroundImageFix"/>
<feBlend mode="normal" in="SourceGraphic" in2="BackgroundImageFix" result="shape"/>
<feColorMatrix in="SourceAlpha" type="matrix" values="0 0 0 0 0 0 0 0 0 0 0 0 0 0 0 0 0 0 127 0" result="hardAlpha"/>
<feMorphology radius="100" operator="erode" in="SourceAlpha" result="effect1_innerShadow_4_72"/>
<feOffset dy="300"/>
<feGaussianBlur stdDeviation="10"/>
<feComposite in2="hardAlpha" operator="arithmetic" k2="-1" k3="1"/>
<feColorMatrix type="matrix" values="0 0 0 0 1 0 0 0 0 0 0 0 0 0 0 0 0 0 0.11 0"/>
<feBlend mode="normal" in2="shape" result="effect1_innerShadow_4_72"/>
</filter>
<clipPath id="clip0_4_72">
<rect width="800" height="500" fill="white"/>
</clipPath>
</defs>
</svg>
